<?xml version="1.0" encoding="us-ascii" standalone="no"?><svg xmlns="http://www.w3.org/2000/svg" xmlns:xlink="http://www.w3.org/1999/xlink" contentStyleType="text/css" height="1101px" preserveAspectRatio="none" style="width:1337px;height:1101px;background:#FFFFFF;" version="1.1" viewBox="0 0 1337 1101" width="1337px" zoomAndPan="magnify"><defs/><g><!--cluster Farm Environments--><g id="cluster_Farm Environments"><path d="M8.5,6 L166.5,6 A3.75,3.75 0 0 1 169,8.5 L176,28.2969 L1327.5,28.2969 A2.5,2.5 0 0 1 1330,30.7969 L1330,652.5 A2.5,2.5 0 0 1 1327.5,655 L8.5,655 A2.5,2.5 0 0 1 6,652.5 L6,8.5 A2.5,2.5 0 0 1 8.5,6 " fill="none" style="stroke:#000000;stroke-width:1.5;"/><line style="stroke:#000000;stroke-width:1.5;" x1="6" x2="176" y1="28.2969" y2="28.2969"/><text fill="#000000" font-family="sans-serif" font-size="14" font-weight="bold" lengthAdjust="spacing" textLength="157" x="10" y="20.9951">Farm Environments</text></g><!--cluster Region 1--><g id="cluster_Region 1"><path d="M898.5,49 L969.5,49 A3.75,3.75 0 0 1 972,51.5 L979,71.2969 L1303.5,71.2969 A2.5,2.5 0 0 1 1306,73.7969 L1306,628.5 A2.5,2.5 0 0 1 1303.5,631 L898.5,631 A2.5,2.5 0 0 1 896,628.5 L896,51.5 A2.5,2.5 0 0 1 898.5,49 " fill="none" style="stroke:#000000;stroke-width:1.5;"/><line style="stroke:#000000;stroke-width:1.5;" x1="896" x2="979" y1="71.2969" y2="71.2969"/><text fill="#000000" font-family="sans-serif" font-size="14" font-weight="bold" lengthAdjust="spacing" textLength="70" x="900" y="63.9951">Region 1</text></g><!--cluster Region 2--><g id="cluster_Region 2"><path d="M466.5,49 L537.5,49 A3.75,3.75 0 0 1 540,51.5 L547,71.2969 L869.5,71.2969 A2.5,2.5 0 0 1 872,73.7969 L872,628.5 A2.5,2.5 0 0 1 869.5,631 L466.5,631 A2.5,2.5 0 0 1 464,628.5 L464,51.5 A2.5,2.5 0 0 1 466.5,49 " fill="none" style="stroke:#000000;stroke-width:1.5;"/><line style="stroke:#000000;stroke-width:1.5;" x1="464" x2="547" y1="71.2969" y2="71.2969"/><text fill="#000000" font-family="sans-serif" font-size="14" font-weight="bold" lengthAdjust="spacing" textLength="70" x="468" y="63.9951">Region 2</text></g><!--cluster Region 3--><g id="cluster_Region 3"><path d="M32.5,49 L103.5,49 A3.75,3.75 0 0 1 106,51.5 L113,71.2969 L437.5,71.2969 A2.5,2.5 0 0 1 440,73.7969 L440,628.5 A2.5,2.5 0 0 1 437.5,631 L32.5,631 A2.5,2.5 0 0 1 30,628.5 L30,51.5 A2.5,2.5 0 0 1 32.5,49 " fill="none" style="stroke:#000000;stroke-width:1.5;"/><line style="stroke:#000000;stroke-width:1.5;" x1="30" x2="113" y1="71.2969" y2="71.2969"/><text fill="#000000" font-family="sans-serif" font-size="14" font-weight="bold" lengthAdjust="spacing" textLength="70" x="34" y="63.9951">Region 3</text></g><!--cluster Central Region--><g id="cluster_Central Region"><path d="M458.5,679 L578.5,679 A3.75,3.75 0 0 1 581,681.5 L588,701.2969 L877.5,701.2969 A2.5,2.5 0 0 1 880,703.7969 L880,1091.5 A2.5,2.5 0 0 1 877.5,1094 L458.5,1094 A2.5,2.5 0 0 1 456,1091.5 L456,681.5 A2.5,2.5 0 0 1 458.5,679 " fill="none" style="stroke:#000000;stroke-width:1.5;"/><line style="stroke:#000000;stroke-width:1.5;" x1="456" x2="588" y1="701.2969" y2="701.2969"/><text fill="#000000" font-family="sans-serif" font-size="14" font-weight="bold" lengthAdjust="spacing" textLength="119" x="460" y="693.9951">Central Region</text></g><!--entity Sensors 1--><g id="elem_Sensors 1"><rect fill="#F1F1F1" height="46.2969" rx="2.5" ry="2.5" style="stroke:#181818;stroke-width:0.5;" width="109" x="1046.5" y="84"/><rect fill="#F1F1F1" height="10" style="stroke:#181818;stroke-width:0.5;" width="15" x="1135.5" y="89"/><rect fill="#F1F1F1" height="2" style="stroke:#181818;stroke-width:0.5;" width="4" x="1133.5" y="91"/><rect fill="#F1F1F1" height="2" style="stroke:#181818;stroke-width:0.5;" width="4" x="1133.5" y="95"/><text fill="#000000" font-family="sans-serif" font-size="14" lengthAdjust="spacing" textLength="69" x="1061.5" y="116.9951">Sensors 1</text></g><!--entity MQTT Broker 1--><g id="elem_MQTT Broker 1"><rect fill="#F1F1F1" height="46.2969" rx="2.5" ry="2.5" style="stroke:#181818;stroke-width:0.5;" width="147" x="1027.5" y="190"/><rect fill="#F1F1F1" height="10" style="stroke:#181818;stroke-width:0.5;" width="15" x="1154.5" y="195"/><rect fill="#F1F1F1" height="2" style="stroke:#181818;stroke-width:0.5;" width="4" x="1152.5" y="197"/><rect fill="#F1F1F1" height="2" style="stroke:#181818;stroke-width:0.5;" width="4" x="1152.5" y="201"/><text fill="#000000" font-family="sans-serif" font-size="14" lengthAdjust="spacing" textLength="107" x="1042.5" y="222.9951">MQTT Broker 1</text></g><!--entity Data Ingestion Service (Dockerized) Region 1--><g id="elem_Data Ingestion Service (Dockerized) Region 1"><rect fill="#F1F1F1" height="46.2969" rx="2.5" ry="2.5" style="stroke:#181818;stroke-width:0.5;" width="365" x="918.5" y="357"/><rect fill="#F1F1F1" height="10" style="stroke:#181818;stroke-width:0.5;" width="15" x="1263.5" y="362"/><rect fill="#F1F1F1" height="2" style="stroke:#181818;stroke-width:0.5;" width="4" x="1261.5" y="364"/><rect fill="#F1F1F1" height="2" style="stroke:#181818;stroke-width:0.5;" width="4" x="1261.5" y="368"/><text fill="#000000" font-family="sans-serif" font-size="14" lengthAdjust="spacing" textLength="325" x="933.5" y="389.9951">Data Ingestion Service (Dockerized) Region 1</text></g><!--entity Data Encryption Service (Dockerized) Region 1--><g id="elem_Data Encryption Service (Dockerized) Region 1"><rect fill="#F1F1F1" height="46.2969" rx="2.5" ry="2.5" style="stroke:#181818;stroke-width:0.5;" width="377" x="912.5" y="463"/><rect fill="#F1F1F1" height="10" style="stroke:#181818;stroke-width:0.5;" width="15" x="1269.5" y="468"/><rect fill="#F1F1F1" height="2" style="stroke:#181818;stroke-width:0.5;" width="4" x="1267.5" y="470"/><rect fill="#F1F1F1" height="2" style="stroke:#181818;stroke-width:0.5;" width="4" x="1267.5" y="474"/><text fill="#000000" font-family="sans-serif" font-size="14" lengthAdjust="spacing" textLength="337" x="927.5" y="495.9951">Data Encryption Service (Dockerized) Region 1</text></g><!--entity GCP Cloud Storage - Region 1 (Dockerized)--><g id="elem_GCP Cloud Storage - Region 1 (Dockerized)"><rect fill="#F1F1F1" height="46.2969" rx="2.5" ry="2.5" style="stroke:#181818;stroke-width:0.5;" width="348" x="919" y="569"/><rect fill="#F1F1F1" height="10" style="stroke:#181818;stroke-width:0.5;" width="15" x="1247" y="574"/><rect fill="#F1F1F1" height="2" style="stroke:#181818;stroke-width:0.5;" width="4" x="1245" y="576"/><rect fill="#F1F1F1" height="2" style="stroke:#181818;stroke-width:0.5;" width="4" x="1245" y="580"/><text fill="#000000" font-family="sans-serif" font-size="14" lengthAdjust="spacing" textLength="308" x="934" y="601.9951">GCP Cloud Storage - Region 1 (Dockerized)</text></g><!--entity Sensors 2--><g id="elem_Sensors 2"><rect fill="#F1F1F1" height="46.2969" rx="2.5" ry="2.5" style="stroke:#181818;stroke-width:0.5;" width="108" x="614" y="84"/><rect fill="#F1F1F1" height="10" style="stroke:#181818;stroke-width:0.5;" width="15" x="702" y="89"/><rect fill="#F1F1F1" height="2" style="stroke:#181818;stroke-width:0.5;" width="4" x="700" y="91"/><rect fill="#F1F1F1" height="2" style="stroke:#181818;stroke-width:0.5;" width="4" x="700" y="95"/><text fill="#000000" font-family="sans-serif" font-size="14" lengthAdjust="spacing" textLength="68" x="629" y="116.9951">Sensors 2</text></g><!--entity MQTT Broker 2--><g id="elem_MQTT Broker 2"><rect fill="#F1F1F1" height="46.2969" rx="2.5" ry="2.5" style="stroke:#181818;stroke-width:0.5;" width="146" x="595" y="190"/><rect fill="#F1F1F1" height="10" style="stroke:#181818;stroke-width:0.5;" width="15" x="721" y="195"/><rect fill="#F1F1F1" height="2" style="stroke:#181818;stroke-width:0.5;" width="4" x="719" y="197"/><rect fill="#F1F1F1" height="2" style="stroke:#181818;stroke-width:0.5;" width="4" x="719" y="201"/><text fill="#000000" font-family="sans-serif" font-size="14" lengthAdjust="spacing" textLength="106" x="610" y="222.9951">MQTT Broker 2</text></g><!--entity Data Ingestion Service (Dockerized) Region 2--><g id="elem_Data Ingestion Service (Dockerized) Region 2"><rect fill="#F1F1F1" height="46.2969" rx="2.5" ry="2.5" style="stroke:#181818;stroke-width:0.5;" width="364" x="486" y="357"/><rect fill="#F1F1F1" height="10" style="stroke:#181818;stroke-width:0.5;" width="15" x="830" y="362"/><rect fill="#F1F1F1" height="2" style="stroke:#181818;stroke-width:0.5;" width="4" x="828" y="364"/><rect fill="#F1F1F1" height="2" style="stroke:#181818;stroke-width:0.5;" width="4" x="828" y="368"/><text fill="#000000" font-family="sans-serif" font-size="14" lengthAdjust="spacing" textLength="324" x="501" y="389.9951">Data Ingestion Service (Dockerized) Region 2</text></g><!--entity Data Encryption Service (Dockerized) Region 2--><g id="elem_Data Encryption Service (Dockerized) Region 2"><rect fill="#F1F1F1" height="46.2969" rx="2.5" ry="2.5" style="stroke:#181818;stroke-width:0.5;" width="376" x="480" y="463"/><rect fill="#F1F1F1" height="10" style="stroke:#181818;stroke-width:0.5;" width="15" x="836" y="468"/><rect fill="#F1F1F1" height="2" style="stroke:#181818;stroke-width:0.5;" width="4" x="834" y="470"/><rect fill="#F1F1F1" height="2" style="stroke:#181818;stroke-width:0.5;" width="4" x="834" y="474"/><text fill="#000000" font-family="sans-serif" font-size="14" lengthAdjust="spacing" textLength="336" x="495" y="495.9951">Data Encryption Service (Dockerized) Region 2</text></g><!--entity GCP Cloud Storage - Region 2 (Dockerized)--><g id="elem_GCP Cloud Storage - Region 2 (Dockerized)"><rect fill="#F1F1F1" height="46.2969" rx="2.5" ry="2.5" style="stroke:#181818;stroke-width:0.5;" width="347" x="494.5" y="569"/><rect fill="#F1F1F1" height="10" style="stroke:#181818;stroke-width:0.5;" width="15" x="821.5" y="574"/><rect fill="#F1F1F1" height="2" style="stroke:#181818;stroke-width:0.5;" width="4" x="819.5" y="576"/><rect fill="#F1F1F1" height="2" style="stroke:#181818;stroke-width:0.5;" width="4" x="819.5" y="580"/><text fill="#000000" font-family="sans-serif" font-size="14" lengthAdjust="spacing" textLength="307" x="509.5" y="601.9951">GCP Cloud Storage - Region 2 (Dockerized)</text></g><!--entity Sensors 3--><g id="elem_Sensors 3"><rect fill="#F1F1F1" height="46.2969" rx="2.5" ry="2.5" style="stroke:#181818;stroke-width:0.5;" width="109" x="180.5" y="84"/><rect fill="#F1F1F1" height="10" style="stroke:#181818;stroke-width:0.5;" width="15" x="269.5" y="89"/><rect fill="#F1F1F1" height="2" style="stroke:#181818;stroke-width:0.5;" width="4" x="267.5" y="91"/><rect fill="#F1F1F1" height="2" style="stroke:#181818;stroke-width:0.5;" width="4" x="267.5" y="95"/><text fill="#000000" font-family="sans-serif" font-size="14" lengthAdjust="spacing" textLength="69" x="195.5" y="116.9951">Sensors 3</text></g><!--entity MQTT Broker 3--><g id="elem_MQTT Broker 3"><rect fill="#F1F1F1" height="46.2969" rx="2.5" ry="2.5" style="stroke:#181818;stroke-width:0.5;" width="147" x="161.5" y="190"/><rect fill="#F1F1F1" height="10" style="stroke:#181818;stroke-width:0.5;" width="15" x="288.5" y="195"/><rect fill="#F1F1F1" height="2" style="stroke:#181818;stroke-width:0.5;" width="4" x="286.5" y="197"/><rect fill="#F1F1F1" height="2" style="stroke:#181818;stroke-width:0.5;" width="4" x="286.5" y="201"/><text fill="#000000" font-family="sans-serif" font-size="14" lengthAdjust="spacing" textLength="107" x="176.5" y="222.9951">MQTT Broker 3</text></g><!--entity Data Ingestion Service (Dockerized) Region 3--><g id="elem_Data Ingestion Service (Dockerized) Region 3"><rect fill="#F1F1F1" height="46.2969" rx="2.5" ry="2.5" style="stroke:#181818;stroke-width:0.5;" width="365" x="52.5" y="357"/><rect fill="#F1F1F1" height="10" style="stroke:#181818;stroke-width:0.5;" width="15" x="397.5" y="362"/><rect fill="#F1F1F1" height="2" style="stroke:#181818;stroke-width:0.5;" width="4" x="395.5" y="364"/><rect fill="#F1F1F1" height="2" style="stroke:#181818;stroke-width:0.5;" width="4" x="395.5" y="368"/><text fill="#000000" font-family="sans-serif" font-size="14" lengthAdjust="spacing" textLength="325" x="67.5" y="389.9951">Data Ingestion Service (Dockerized) Region 3</text></g><!--entity Data Encryption Service (Dockerized) Region 3--><g id="elem_Data Encryption Service (Dockerized) Region 3"><rect fill="#F1F1F1" height="46.2969" rx="2.5" ry="2.5" style="stroke:#181818;stroke-width:0.5;" width="377" x="46.5" y="463"/><rect fill="#F1F1F1" height="10" style="stroke:#181818;stroke-width:0.5;" width="15" x="403.5" y="468"/><rect fill="#F1F1F1" height="2" style="stroke:#181818;stroke-width:0.5;" width="4" x="401.5" y="470"/><rect fill="#F1F1F1" height="2" style="stroke:#181818;stroke-width:0.5;" width="4" x="401.5" y="474"/><text fill="#000000" font-family="sans-serif" font-size="14" lengthAdjust="spacing" textLength="337" x="61.5" y="495.9951">Data Encryption Service (Dockerized) Region 3</text></g><!--entity GCP Cloud Storage - Region 3 (Dockerized)--><g id="elem_GCP Cloud Storage - Region 3 (Dockerized)"><rect fill="#F1F1F1" height="46.2969" rx="2.5" ry="2.5" style="stroke:#181818;stroke-width:0.5;" width="348" x="69" y="569"/><rect fill="#F1F1F1" height="10" style="stroke:#181818;stroke-width:0.5;" width="15" x="397" y="574"/><rect fill="#F1F1F1" height="2" style="stroke:#181818;stroke-width:0.5;" width="4" x="395" y="576"/><rect fill="#F1F1F1" height="2" style="stroke:#181818;stroke-width:0.5;" width="4" x="395" y="580"/><text fill="#000000" font-family="sans-serif" font-size="14" lengthAdjust="spacing" textLength="308" x="84" y="601.9951">GCP Cloud Storage - Region 3 (Dockerized)</text></g><!--entity Machine Learning Model Repository (Dockerized)--><g id="elem_Machine Learning Model Repository (Dockerized)"><rect fill="#F1F1F1" height="46.2969" rx="2.5" ry="2.5" style="stroke:#181818;stroke-width:0.5;" width="391" x="472.5" y="714"/><rect fill="#F1F1F1" height="10" style="stroke:#181818;stroke-width:0.5;" width="15" x="843.5" y="719"/><rect fill="#F1F1F1" height="2" style="stroke:#181818;stroke-width:0.5;" width="4" x="841.5" y="721"/><rect fill="#F1F1F1" height="2" style="stroke:#181818;stroke-width:0.5;" width="4" x="841.5" y="725"/><text fill="#000000" font-family="sans-serif" font-size="14" lengthAdjust="spacing" textLength="351" x="487.5" y="746.9951">Machine Learning Model Repository (Dockerized)</text></g><!--entity Machine Learning Inference (Dockerized)--><g id="elem_Machine Learning Inference (Dockerized)"><rect fill="#F1F1F1" height="46.2969" rx="2.5" ry="2.5" style="stroke:#181818;stroke-width:0.5;" width="334" x="506" y="820"/><rect fill="#F1F1F1" height="10" style="stroke:#181818;stroke-width:0.5;" width="15" x="820" y="825"/><rect fill="#F1F1F1" height="2" style="stroke:#181818;stroke-width:0.5;" width="4" x="818" y="827"/><rect fill="#F1F1F1" height="2" style="stroke:#181818;stroke-width:0.5;" width="4" x="818" y="831"/><text fill="#000000" font-family="sans-serif" font-size="14" lengthAdjust="spacing" textLength="294" x="521" y="852.9951">Machine Learning Inference (Dockerized)</text></g><!--entity Anomaly Detection & Alerting (Dockerized)--><g id="elem_Anomaly Detection &amp; Alerting (Dockerized)"><rect fill="#F1F1F1" height="46.2969" rx="2.5" ry="2.5" style="stroke:#181818;stroke-width:0.5;" width="352" x="507" y="926"/><rect fill="#F1F1F1" height="10" style="stroke:#181818;stroke-width:0.5;" width="15" x="839" y="931"/><rect fill="#F1F1F1" height="2" style="stroke:#181818;stroke-width:0.5;" width="4" x="837" y="933"/><rect fill="#F1F1F1" height="2" style="stroke:#181818;stroke-width:0.5;" width="4" x="837" y="937"/><text fill="#000000" font-family="sans-serif" font-size="14" lengthAdjust="spacing" textLength="312" x="522" y="958.9951">Anomaly Detection &amp; Alerting (Dockerized)</text></g><!--entity Web Application--><g id="elem_Web Application"><rect fill="#F1F1F1" height="46.2969" rx="2.5" ry="2.5" style="stroke:#181818;stroke-width:0.5;" width="160" x="603" y="1032"/><rect fill="#F1F1F1" height="10" style="stroke:#181818;stroke-width:0.5;" width="15" x="743" y="1037"/><rect fill="#F1F1F1" height="2" style="stroke:#181818;stroke-width:0.5;" width="4" x="741" y="1039"/><rect fill="#F1F1F1" height="2" style="stroke:#181818;stroke-width:0.5;" width="4" x="741" y="1043"/><text fill="#000000" font-family="sans-serif" font-size="14" lengthAdjust="spacing" textLength="120" x="618" y="1064.9951">Web Application</text></g><!--entity Mobile Application--><g id="elem_Mobile Application"><rect fill="#F1F1F1" height="46.2969" rx="2.5" ry="2.5" style="stroke:#181818;stroke-width:0.5;" width="175" x="896.5" y="1032"/><rect fill="#F1F1F1" height="10" style="stroke:#181818;stroke-width:0.5;" width="15" x="1051.5" y="1037"/><rect fill="#F1F1F1" height="2" style="stroke:#181818;stroke-width:0.5;" width="4" x="1049.5" y="1039"/><rect fill="#F1F1F1" height="2" style="stroke:#181818;stroke-width:0.5;" width="4" x="1049.5" y="1043"/><text fill="#000000" font-family="sans-serif" font-size="14" lengthAdjust="spacing" textLength="135" x="911.5" y="1064.9951">Mobile Application</text></g><!--link Sensors 1 to MQTT Broker 1--><g id="link_Sensors 1_MQTT Broker 1"><path d="M1101,130.056 C1101,147.705 1101,166.335 1101,183.976 " fill="none" id="Sensors 1-to-MQTT Broker 1" style="stroke:#181818;stroke-width:1.0;"/><polygon fill="#181818" points="1101,189.976,1105,180.976,1101,184.976,1097,180.976,1101,189.976" style="stroke:#181818;stroke-width:1.0;"/></g><!--link MQTT Broker 1 to Data Ingestion Service (Dockerized) Region 1--><g id="link_MQTT Broker 1_Data Ingestion Service (Dockerized) Region 1"><path d="M1101,236.253 C1101,267.832 1101,319.307 1101,350.837 " fill="none" id="MQTT Broker 1-to-Data Ingestion Service (Dockerized) Region 1" style="stroke:#181818;stroke-width:1.0;"/><polygon fill="#181818" points="1101,356.837,1105,347.837,1101,351.837,1097,347.837,1101,356.837" style="stroke:#181818;stroke-width:1.0;"/></g><!--link Data Ingestion Service (Dockerized) Region 1 to Data Encryption Service (Dockerized) Region 1--><g id="link_Data Ingestion Service (Dockerized) Region 1_Data Encryption Service (Dockerized) Region 1"><path d="M1101,403.056 C1101,420.705 1101,439.335 1101,456.976 " fill="none" id="Data Ingestion Service (Dockerized) Region 1-to-Data Encryption Service (Dockerized) Region 1" style="stroke:#181818;stroke-width:1.0;"/><polygon fill="#181818" points="1101,462.976,1105,453.976,1101,457.976,1097,453.976,1101,462.976" style="stroke:#181818;stroke-width:1.0;"/></g><!--link Data Encryption Service (Dockerized) Region 1 to GCP Cloud Storage - Region 1 (Dockerized)--><g id="link_Data Encryption Service (Dockerized) Region 1_GCP Cloud Storage - Region 1 (Dockerized)"><path d="M1099.3,509.056 C1097.95,526.705 1096.5112,545.3528 1095.1512,562.9938 " fill="none" id="Data Encryption Service (Dockerized) Region 1-to-GCP Cloud Storage - Region 1 (Dockerized)" style="stroke:#181818;stroke-width:1.0;"/><polygon fill="#181818" points="1094.69,568.976,1099.37,560.3101,1095.0743,563.9908,1091.3936,559.6952,1094.69,568.976" style="stroke:#181818;stroke-width:1.0;"/></g><!--link Sensors 2 to MQTT Broker 2--><g id="link_Sensors 2_MQTT Broker 2"><path d="M668,130.056 C668,147.705 668,166.335 668,183.976 " fill="none" id="Sensors 2-to-MQTT Broker 2" style="stroke:#181818;stroke-width:1.0;"/><polygon fill="#181818" points="668,189.976,672,180.976,668,184.976,664,180.976,668,189.976" style="stroke:#181818;stroke-width:1.0;"/></g><!--link MQTT Broker 2 to Data Ingestion Service (Dockerized) Region 2--><g id="link_MQTT Broker 2_Data Ingestion Service (Dockerized) Region 2"><path d="M668,236.253 C668,267.832 668,319.307 668,350.837 " fill="none" id="MQTT Broker 2-to-Data Ingestion Service (Dockerized) Region 2" style="stroke:#181818;stroke-width:1.0;"/><polygon fill="#181818" points="668,356.837,672,347.837,668,351.837,664,347.837,668,356.837" style="stroke:#181818;stroke-width:1.0;"/></g><!--link Data Ingestion Service (Dockerized) Region 2 to Data Encryption Service (Dockerized) Region 2--><g id="link_Data Ingestion Service (Dockerized) Region 2_Data Encryption Service (Dockerized) Region 2"><path d="M668,403.056 C668,420.705 668,439.335 668,456.976 " fill="none" id="Data Ingestion Service (Dockerized) Region 2-to-Data Encryption Service (Dockerized) Region 2" style="stroke:#181818;stroke-width:1.0;"/><polygon fill="#181818" points="668,462.976,672,453.976,668,457.976,664,453.976,668,462.976" style="stroke:#181818;stroke-width:1.0;"/></g><!--link Data Encryption Service (Dockerized) Region 2 to GCP Cloud Storage - Region 2 (Dockerized)--><g id="link_Data Encryption Service (Dockerized) Region 2_GCP Cloud Storage - Region 2 (Dockerized)"><path d="M668,509.056 C668,526.705 668,545.335 668,562.976 " fill="none" id="Data Encryption Service (Dockerized) Region 2-to-GCP Cloud Storage - Region 2 (Dockerized)" style="stroke:#181818;stroke-width:1.0;"/><polygon fill="#181818" points="668,568.976,672,559.976,668,563.976,664,559.976,668,568.976" style="stroke:#181818;stroke-width:1.0;"/></g><!--link Sensors 3 to MQTT Broker 3--><g id="link_Sensors 3_MQTT Broker 3"><path d="M235,130.056 C235,147.705 235,166.335 235,183.976 " fill="none" id="Sensors 3-to-MQTT Broker 3" style="stroke:#181818;stroke-width:1.0;"/><polygon fill="#181818" points="235,189.976,239,180.976,235,184.976,231,180.976,235,189.976" style="stroke:#181818;stroke-width:1.0;"/></g><!--link MQTT Broker 3 to Data Ingestion Service (Dockerized) Region 3--><g id="link_MQTT Broker 3_Data Ingestion Service (Dockerized) Region 3"><path d="M235,236.253 C235,267.832 235,319.307 235,350.837 " fill="none" id="MQTT Broker 3-to-Data Ingestion Service (Dockerized) Region 3" style="stroke:#181818;stroke-width:1.0;"/><polygon fill="#181818" points="235,356.837,239,347.837,235,351.837,231,347.837,235,356.837" style="stroke:#181818;stroke-width:1.0;"/></g><!--link Data Ingestion Service (Dockerized) Region 3 to Data Encryption Service (Dockerized) Region 3--><g id="link_Data Ingestion Service (Dockerized) Region 3_Data Encryption Service (Dockerized) Region 3"><path d="M235,403.056 C235,420.705 235,439.335 235,456.976 " fill="none" id="Data Ingestion Service (Dockerized) Region 3-to-Data Encryption Service (Dockerized) Region 3" style="stroke:#181818;stroke-width:1.0;"/><polygon fill="#181818" points="235,462.976,239,453.976,235,457.976,231,453.976,235,462.976" style="stroke:#181818;stroke-width:1.0;"/></g><!--link Data Encryption Service (Dockerized) Region 3 to GCP Cloud Storage - Region 3 (Dockerized)--><g id="link_Data Encryption Service (Dockerized) Region 3_GCP Cloud Storage - Region 3 (Dockerized)"><path d="M236.697,509.056 C238.054,526.705 239.4888,545.3527 240.8458,562.9937 " fill="none" id="Data Encryption Service (Dockerized) Region 3-to-GCP Cloud Storage - Region 3 (Dockerized)" style="stroke:#181818;stroke-width:1.0;"/><polygon fill="#181818" points="241.306,568.976,244.6039,559.6957,240.9225,563.9907,236.6275,560.3093,241.306,568.976" style="stroke:#181818;stroke-width:1.0;"/></g><!--link GCP Cloud Storage - Region 1 (Dockerized) to Machine Learning Model Repository (Dockerized)--><g id="link_GCP Cloud Storage - Region 1 (Dockerized)_Machine Learning Model Repository (Dockerized)"><path d="M1027.53,615.03 C947.66,641.903 819.1347,685.1476 739.2357,712.0316 " fill="none" id="GCP Cloud Storage - Region 1 (Dockerized)-to-Machine Learning Model Repository (Dockerized)" style="stroke:#181818;stroke-width:1.0;"/><polygon fill="#181818" points="733.549,713.945,743.3547,714.866,738.2879,712.3505,740.8035,707.2837,733.549,713.945" style="stroke:#181818;stroke-width:1.0;"/></g><!--link GCP Cloud Storage - Region 2 (Dockerized) to Machine Learning Model Repository (Dockerized)--><g id="link_GCP Cloud Storage - Region 2 (Dockerized)_Machine Learning Model Repository (Dockerized)"><path d="M668,615.03 C668,641.824 668,680.798 668,707.709 " fill="none" id="GCP Cloud Storage - Region 2 (Dockerized)-to-Machine Learning Model Repository (Dockerized)" style="stroke:#181818;stroke-width:1.0;"/><polygon fill="#181818" points="668,713.709,672,704.709,668,708.709,664,704.709,668,713.709" style="stroke:#181818;stroke-width:1.0;"/></g><!--link GCP Cloud Storage - Region 3 (Dockerized) to Machine Learning Model Repository (Dockerized)--><g id="link_GCP Cloud Storage - Region 3 (Dockerized)_Machine Learning Model Repository (Dockerized)"><path d="M308.475,615.03 C388.34,641.903 516.8653,685.1476 596.7643,712.0316 " fill="none" id="GCP Cloud Storage - Region 3 (Dockerized)-to-Machine Learning Model Repository (Dockerized)" style="stroke:#181818;stroke-width:1.0;"/><polygon fill="#181818" points="602.451,713.945,595.1965,707.2837,597.7121,712.3505,592.6453,714.866,602.451,713.945" style="stroke:#181818;stroke-width:1.0;"/></g><!--link Machine Learning Model Repository (Dockerized) to Machine Learning Inference (Dockerized)--><g id="link_Machine Learning Model Repository (Dockerized)_Machine Learning Inference (Dockerized)"><path d="M669.06,760.056 C669.909,777.705 670.8049,796.3419 671.6529,813.9829 " fill="none" id="Machine Learning Model Repository (Dockerized)-to-Machine Learning Inference (Dockerized)" style="stroke:#181818;stroke-width:1.0;"/><polygon fill="#181818" points="671.941,819.976,675.5043,810.7943,671.7009,814.9818,667.5135,811.1784,671.941,819.976" style="stroke:#181818;stroke-width:1.0;"/></g><!--link Machine Learning Inference (Dockerized) to Anomaly Detection & Alerting (Dockerized)--><g id="link_Machine Learning Inference (Dockerized)_Anomaly Detection &amp; Alerting (Dockerized)"><path d="M675.121,866.056 C676.818,883.705 678.6118,902.3625 680.3078,920.0035 " fill="none" id="Machine Learning Inference (Dockerized)-to-Anomaly Detection &amp; Alerting (Dockerized)" style="stroke:#181818;stroke-width:1.0;"/><polygon fill="#181818" points="680.882,925.976,684.0024,916.6345,680.4035,920.9989,676.0391,917.4001,680.882,925.976" style="stroke:#181818;stroke-width:1.0;"/></g><!--link Anomaly Detection & Alerting (Dockerized) to Web Application--><g id="link_Anomaly Detection &amp; Alerting (Dockerized)_Web Application"><path d="M683,972.056 C683,989.705 683,1008.3353 683,1025.9761 " fill="none" id="Anomaly Detection &amp; Alerting (Dockerized)-to-Web Application" style="stroke:#181818;stroke-width:1.0;"/><polygon fill="#181818" points="683,1031.9761,687,1022.9761,683,1026.9761,679,1022.9761,683,1031.9761" style="stroke:#181818;stroke-width:1.0;"/></g><!--link Anomaly Detection & Alerting (Dockerized) to Mobile Application--><g id="link_Anomaly Detection &amp; Alerting (Dockerized)_Mobile Application"><path d="M746.834,972.056 C797.915,989.705 863.53,1012.3759 914.587,1030.0167 " fill="none" id="Anomaly Detection &amp; Alerting (Dockerized)-to-Mobile Application" style="stroke:#181818;stroke-width:1.0;"/><polygon fill="#181818" points="920.258,1031.9761,913.0577,1025.2563,915.5321,1030.3433,910.4452,1032.8177,920.258,1031.9761" style="stroke:#181818;stroke-width:1.0;"/></g><!--SRC=[jPJFJy8m5CVl_1Kl78mUTg2zao2W8N692ec7XKCfpzcmlIxT947Z_sxB08LqWIxQmmxTzqVpwTiA8LSYHUZU2PF3cDRAQCgHgh8BdnsmgzWhdZ5Lcg2tV-5MCaKgjIcXDuSewaCIFyrcS6lq2etT-z4Txrjjr4z6eX8meHJBoWLFqQoLHBWUQMbbwWENDx0l_HKLPAjFjRMCIPfD4LvriQ_kkXy-mZ3JxqkOLjeuSj51ScIiUxuwNihCIvbvABC6oYoSCcj7cRMWp5fIPkSfiyifSozbxg7C6oZpSCgy7MNUWZ9lIPcVfyozb2td0-EX_OiOaUqCZlHMv1u17ydkAeHyKuJmWCAGeXHYlKGNNUXIsOIDvpG1C_8_9VpFIW9D3KqJUaM3T7BdJHKDwZfxG3eNsGP6MA7SZjCL338qbNDwqY_Nk_pa1HSmA8fCIU74St235HeIwuNAy2Zd6m00]--></g></svg>