<?xml version="1.0" encoding="us-ascii" standalone="no"?><svg xmlns="http://www.w3.org/2000/svg" xmlns:xlink="http://www.w3.org/1999/xlink" contentStyleType="text/css" height="646px" preserveAspectRatio="none" style="width:575px;height:646px;background:#FFFFFF;" version="1.1" viewBox="0 0 575 646" width="575px" zoomAndPan="magnify"><defs/><g><!--class Customer--><g id="elem_Customer"><rect codeLine="1" fill="#F1F1F1" height="129.4844" id="Customer" rx="2.5" ry="2.5" style="stroke:#181818;stroke-width:0.5;" width="107" x="371.5" y="7"/><ellipse cx="388.75" cy="23" fill="#ADD1B2" rx="11" ry="11" style="stroke:#181818;stroke-width:1.0;"/><path d="M391.0938,18.6719 C390.1563,18.2344 389.5625,18.0938 388.6875,18.0938 C386.0625,18.0938 384.0625,20.1719 384.0625,22.8906 L384.0625,24.0156 C384.0625,26.5938 386.1719,28.4844 389.0625,28.4844 C390.2813,28.4844 391.4375,28.1875 392.1875,27.6406 C392.7656,27.2344 393.0938,26.7813 393.0938,26.3906 C393.0938,25.9375 392.7031,25.5469 392.2344,25.5469 C392.0156,25.5469 391.8125,25.625 391.625,25.8125 C391.1719,26.2969 391.1719,26.2969 390.9844,26.3906 C390.5625,26.6563 389.875,26.7813 389.1094,26.7813 C387.0625,26.7813 385.7656,25.6875 385.7656,23.9844 L385.7656,22.8906 C385.7656,21.1094 387.0156,19.7969 388.75,19.7969 C389.3281,19.7969 389.9375,19.9531 390.4063,20.2031 C390.8906,20.4844 391.0625,20.7031 391.1563,21.1094 C391.2188,21.5156 391.25,21.6406 391.3906,21.7656 C391.5313,21.9063 391.7656,22.0156 391.9844,22.0156 C392.25,22.0156 392.5156,21.875 392.6875,21.6563 C392.7969,21.5 392.8281,21.3125 392.8281,20.8906 L392.8281,19.4688 C392.8281,19.0313 392.8125,18.9063 392.7188,18.75 C392.5625,18.4844 392.2813,18.3438 391.9844,18.3438 C391.6875,18.3438 391.4844,18.4375 391.2656,18.75 L391.0938,18.6719 Z " fill="#000000"/><text fill="#000000" font-family="sans-serif" font-size="14" lengthAdjust="spacing" textLength="70" x="403.25" y="27.8467">Customer</text><line style="stroke:#181818;stroke-width:0.5;" x1="372.5" x2="477.5" y1="39" y2="39"/><rect fill="none" height="6" style="stroke:#C82930;stroke-width:1.0;" width="6" x="379.5" y="49.6484"/><text fill="#000000" font-family="sans-serif" font-size="14" lengthAdjust="spacing" textLength="81" x="391.5" y="55.9951">customerId</text><rect fill="none" height="6" style="stroke:#C82930;stroke-width:1.0;" width="6" x="379.5" y="65.9453"/><text fill="#000000" font-family="sans-serif" font-size="14" lengthAdjust="spacing" textLength="40" x="391.5" y="72.292">name</text><rect fill="none" height="6" style="stroke:#C82930;stroke-width:1.0;" width="6" x="379.5" y="82.2422"/><text fill="#000000" font-family="sans-serif" font-size="14" lengthAdjust="spacing" textLength="39" x="391.5" y="88.5889">email</text><rect fill="none" height="6" style="stroke:#C82930;stroke-width:1.0;" width="6" x="379.5" y="98.5391"/><text fill="#000000" font-family="sans-serif" font-size="14" lengthAdjust="spacing" textLength="46" x="391.5" y="104.8857">phone</text><rect fill="none" height="6" style="stroke:#C82930;stroke-width:1.0;" width="6" x="379.5" y="114.8359"/><text fill="#000000" font-family="sans-serif" font-size="14" lengthAdjust="spacing" textLength="55" x="391.5" y="121.1826">address</text><line style="stroke:#181818;stroke-width:0.5;" x1="372.5" x2="477.5" y1="128.4844" y2="128.4844"/></g><!--class Farm--><g id="elem_Farm"><rect codeLine="9" fill="#F1F1F1" height="113.1875" id="Farm" rx="2.5" ry="2.5" style="stroke:#181818;stroke-width:0.5;" width="175" x="249.5" y="196"/><ellipse cx="314.75" cy="212" fill="#ADD1B2" rx="11" ry="11" style="stroke:#181818;stroke-width:1.0;"/><path d="M317.0938,207.6719 C316.1563,207.2344 315.5625,207.0938 314.6875,207.0938 C312.0625,207.0938 310.0625,209.1719 310.0625,211.8906 L310.0625,213.0156 C310.0625,215.5938 312.1719,217.4844 315.0625,217.4844 C316.2813,217.4844 317.4375,217.1875 318.1875,216.6406 C318.7656,216.2344 319.0938,215.7813 319.0938,215.3906 C319.0938,214.9375 318.7031,214.5469 318.2344,214.5469 C318.0156,214.5469 317.8125,214.625 317.625,214.8125 C317.1719,215.2969 317.1719,215.2969 316.9844,215.3906 C316.5625,215.6563 315.875,215.7813 315.1094,215.7813 C313.0625,215.7813 311.7656,214.6875 311.7656,212.9844 L311.7656,211.8906 C311.7656,210.1094 313.0156,208.7969 314.75,208.7969 C315.3281,208.7969 315.9375,208.9531 316.4063,209.2031 C316.8906,209.4844 317.0625,209.7031 317.1563,210.1094 C317.2188,210.5156 317.25,210.6406 317.3906,210.7656 C317.5313,210.9063 317.7656,211.0156 317.9844,211.0156 C318.25,211.0156 318.5156,210.875 318.6875,210.6563 C318.7969,210.5 318.8281,210.3125 318.8281,209.8906 L318.8281,208.4688 C318.8281,208.0313 318.8125,207.9063 318.7188,207.75 C318.5625,207.4844 318.2813,207.3438 317.9844,207.3438 C317.6875,207.3438 317.4844,207.4375 317.2656,207.75 L317.0938,207.6719 Z " fill="#000000"/><text fill="#000000" font-family="sans-serif" font-size="14" lengthAdjust="spacing" textLength="36" x="335.25" y="216.8467">Farm</text><line style="stroke:#181818;stroke-width:0.5;" x1="250.5" x2="423.5" y1="228" y2="228"/><rect fill="none" height="6" style="stroke:#C82930;stroke-width:1.0;" width="6" x="257.5" y="238.6484"/><text fill="#000000" font-family="sans-serif" font-size="14" lengthAdjust="spacing" textLength="47" x="269.5" y="244.9951">farmId</text><rect fill="none" height="6" style="stroke:#C82930;stroke-width:1.0;" width="6" x="257.5" y="254.9453"/><text fill="#000000" font-family="sans-serif" font-size="14" lengthAdjust="spacing" textLength="58" x="269.5" y="261.292">location</text><rect fill="none" height="6" style="stroke:#C82930;stroke-width:1.0;" width="6" x="257.5" y="271.2422"/><text fill="#000000" font-family="sans-serif" font-size="14" lengthAdjust="spacing" textLength="149" x="269.5" y="277.5889">numberOfEnclosures</text><rect fill="none" height="6" style="stroke:#C82930;stroke-width:1.0;" width="6" x="257.5" y="287.5391"/><text fill="#000000" font-family="sans-serif" font-size="14" lengthAdjust="spacing" textLength="81" x="269.5" y="293.8857">customerId</text><line style="stroke:#181818;stroke-width:0.5;" x1="250.5" x2="423.5" y1="301.1875" y2="301.1875"/></g><!--class Enclosure--><g id="elem_Enclosure"><rect codeLine="16" fill="#F1F1F1" height="80.5938" id="Enclosure" rx="2.5" ry="2.5" style="stroke:#181818;stroke-width:0.5;" width="108" x="215" y="369"/><ellipse cx="233.15" cy="385" fill="#ADD1B2" rx="11" ry="11" style="stroke:#181818;stroke-width:1.0;"/><path d="M235.4938,380.6719 C234.5563,380.2344 233.9625,380.0938 233.0875,380.0938 C230.4625,380.0938 228.4625,382.1719 228.4625,384.8906 L228.4625,386.0156 C228.4625,388.5938 230.5719,390.4844 233.4625,390.4844 C234.6813,390.4844 235.8375,390.1875 236.5875,389.6406 C237.1656,389.2344 237.4938,388.7813 237.4938,388.3906 C237.4938,387.9375 237.1031,387.5469 236.6344,387.5469 C236.4156,387.5469 236.2125,387.625 236.025,387.8125 C235.5719,388.2969 235.5719,388.2969 235.3844,388.3906 C234.9625,388.6563 234.275,388.7813 233.5094,388.7813 C231.4625,388.7813 230.1656,387.6875 230.1656,385.9844 L230.1656,384.8906 C230.1656,383.1094 231.4156,381.7969 233.15,381.7969 C233.7281,381.7969 234.3375,381.9531 234.8063,382.2031 C235.2906,382.4844 235.4625,382.7031 235.5563,383.1094 C235.6188,383.5156 235.65,383.6406 235.7906,383.7656 C235.9313,383.9063 236.1656,384.0156 236.3844,384.0156 C236.65,384.0156 236.9156,383.875 237.0875,383.6563 C237.1969,383.5 237.2281,383.3125 237.2281,382.8906 L237.2281,381.4688 C237.2281,381.0313 237.2125,380.9063 237.1188,380.75 C236.9625,380.4844 236.6813,380.3438 236.3844,380.3438 C236.0875,380.3438 235.8844,380.4375 235.6656,380.75 L235.4938,380.6719 Z " fill="#000000"/><text fill="#000000" font-family="sans-serif" font-size="14" lengthAdjust="spacing" textLength="69" x="247.85" y="389.8467">Enclosure</text><line style="stroke:#181818;stroke-width:0.5;" x1="216" x2="322" y1="401" y2="401"/><rect fill="none" height="6" style="stroke:#C82930;stroke-width:1.0;" width="6" x="223" y="411.6484"/><text fill="#000000" font-family="sans-serif" font-size="14" lengthAdjust="spacing" textLength="82" x="235" y="417.9951">enclosureId</text><rect fill="none" height="6" style="stroke:#C82930;stroke-width:1.0;" width="6" x="223" y="427.9453"/><text fill="#000000" font-family="sans-serif" font-size="14" lengthAdjust="spacing" textLength="47" x="235" y="434.292">farmId</text><line style="stroke:#181818;stroke-width:0.5;" x1="216" x2="322" y1="441.5938" y2="441.5938"/></g><!--class Dashboard--><g id="elem_Dashboard"><rect codeLine="21" fill="#F1F1F1" height="96.8906" id="Dashboard" rx="2.5" ry="2.5" style="stroke:#181818;stroke-width:0.5;" width="109" x="459.5" y="204"/><ellipse cx="474.5" cy="220" fill="#ADD1B2" rx="11" ry="11" style="stroke:#181818;stroke-width:1.0;"/><path d="M476.8438,215.6719 C475.9063,215.2344 475.3125,215.0938 474.4375,215.0938 C471.8125,215.0938 469.8125,217.1719 469.8125,219.8906 L469.8125,221.0156 C469.8125,223.5938 471.9219,225.4844 474.8125,225.4844 C476.0313,225.4844 477.1875,225.1875 477.9375,224.6406 C478.5156,224.2344 478.8438,223.7813 478.8438,223.3906 C478.8438,222.9375 478.4531,222.5469 477.9844,222.5469 C477.7656,222.5469 477.5625,222.625 477.375,222.8125 C476.9219,223.2969 476.9219,223.2969 476.7344,223.3906 C476.3125,223.6563 475.625,223.7813 474.8594,223.7813 C472.8125,223.7813 471.5156,222.6875 471.5156,220.9844 L471.5156,219.8906 C471.5156,218.1094 472.7656,216.7969 474.5,216.7969 C475.0781,216.7969 475.6875,216.9531 476.1563,217.2031 C476.6406,217.4844 476.8125,217.7031 476.9063,218.1094 C476.9688,218.5156 477,218.6406 477.1406,218.7656 C477.2813,218.9063 477.5156,219.0156 477.7344,219.0156 C478,219.0156 478.2656,218.875 478.4375,218.6563 C478.5469,218.5 478.5781,218.3125 478.5781,217.8906 L478.5781,216.4688 C478.5781,216.0313 478.5625,215.9063 478.4688,215.75 C478.3125,215.4844 478.0313,215.3438 477.7344,215.3438 C477.4375,215.3438 477.2344,215.4375 477.0156,215.75 L476.8438,215.6719 Z " fill="#000000"/><text fill="#000000" font-family="sans-serif" font-size="14" lengthAdjust="spacing" textLength="77" x="488.5" y="224.8467">Dashboard</text><line style="stroke:#181818;stroke-width:0.5;" x1="460.5" x2="567.5" y1="236" y2="236"/><rect fill="none" height="6" style="stroke:#C82930;stroke-width:1.0;" width="6" x="467.5" y="246.6484"/><text fill="#000000" font-family="sans-serif" font-size="14" lengthAdjust="spacing" textLength="81" x="479.5" y="252.9951">customerId</text><rect fill="none" height="6" style="stroke:#C82930;stroke-width:1.0;" width="6" x="467.5" y="262.9453"/><text fill="#000000" font-family="sans-serif" font-size="14" lengthAdjust="spacing" textLength="62" x="479.5" y="269.292">sendorId</text><rect fill="none" height="6" style="stroke:#C82930;stroke-width:1.0;" width="6" x="467.5" y="279.2422"/><text fill="#000000" font-family="sans-serif" font-size="14" lengthAdjust="spacing" textLength="69" x="479.5" y="285.5889">threshold</text><line style="stroke:#181818;stroke-width:0.5;" x1="460.5" x2="567.5" y1="292.8906" y2="292.8906"/></g><!--class Sensor--><g id="elem_Sensor"><rect codeLine="27" fill="#F1F1F1" height="113.1875" id="Sensor" rx="2.5" ry="2.5" style="stroke:#181818;stroke-width:0.5;" width="142" x="7" y="518"/><ellipse cx="49.45" cy="534" fill="#ADD1B2" rx="11" ry="11" style="stroke:#181818;stroke-width:1.0;"/><path d="M51.7938,529.6719 C50.8563,529.2344 50.2625,529.0938 49.3875,529.0938 C46.7625,529.0938 44.7625,531.1719 44.7625,533.8906 L44.7625,535.0156 C44.7625,537.5938 46.8719,539.4844 49.7625,539.4844 C50.9813,539.4844 52.1375,539.1875 52.8875,538.6406 C53.4656,538.2344 53.7938,537.7813 53.7938,537.3906 C53.7938,536.9375 53.4031,536.5469 52.9344,536.5469 C52.7156,536.5469 52.5125,536.625 52.325,536.8125 C51.8719,537.2969 51.8719,537.2969 51.6844,537.3906 C51.2625,537.6563 50.575,537.7813 49.8094,537.7813 C47.7625,537.7813 46.4656,536.6875 46.4656,534.9844 L46.4656,533.8906 C46.4656,532.1094 47.7156,530.7969 49.45,530.7969 C50.0281,530.7969 50.6375,530.9531 51.1063,531.2031 C51.5906,531.4844 51.7625,531.7031 51.8563,532.1094 C51.9188,532.5156 51.95,532.6406 52.0906,532.7656 C52.2313,532.9063 52.4656,533.0156 52.6844,533.0156 C52.95,533.0156 53.2156,532.875 53.3875,532.6563 C53.4969,532.5 53.5281,532.3125 53.5281,531.8906 L53.5281,530.4688 C53.5281,530.0313 53.5125,529.9063 53.4188,529.75 C53.2625,529.4844 52.9813,529.3438 52.6844,529.3438 C52.3875,529.3438 52.1844,529.4375 51.9656,529.75 L51.7938,529.6719 Z " fill="#000000"/><text fill="#000000" font-family="sans-serif" font-size="14" lengthAdjust="spacing" textLength="49" x="69.55" y="538.8467">Sensor</text><line style="stroke:#181818;stroke-width:0.5;" x1="8" x2="148" y1="550" y2="550"/><rect fill="none" height="6" style="stroke:#C82930;stroke-width:1.0;" width="6" x="15" y="560.6484"/><text fill="#000000" font-family="sans-serif" font-size="14" lengthAdjust="spacing" textLength="62" x="27" y="566.9951">sendorId</text><rect fill="none" height="6" style="stroke:#C82930;stroke-width:1.0;" width="6" x="15" y="576.9453"/><text fill="#000000" font-family="sans-serif" font-size="14" lengthAdjust="spacing" textLength="77" x="27" y="583.292">parameter</text><rect fill="none" height="6" style="stroke:#C82930;stroke-width:1.0;" width="6" x="15" y="593.2422"/><text fill="#000000" font-family="sans-serif" font-size="14" lengthAdjust="spacing" textLength="116" x="27" y="599.5889">parameterValue</text><rect fill="none" height="6" style="stroke:#C82930;stroke-width:1.0;" width="6" x="15" y="609.5391"/><text fill="#000000" font-family="sans-serif" font-size="14" lengthAdjust="spacing" textLength="82" x="27" y="615.8857">enclosureId</text><line style="stroke:#181818;stroke-width:0.5;" x1="8" x2="148" y1="623.1875" y2="623.1875"/></g><!--class UnderwaterCamera--><g id="elem_UnderwaterCamera"><rect codeLine="34" fill="#F1F1F1" height="129.4844" id="UnderwaterCamera" rx="2.5" ry="2.5" style="stroke:#181818;stroke-width:0.5;" width="170" x="184" y="510"/><ellipse cx="199" cy="526" fill="#ADD1B2" rx="11" ry="11" style="stroke:#181818;stroke-width:1.0;"/><path d="M201.3438,521.6719 C200.4063,521.2344 199.8125,521.0938 198.9375,521.0938 C196.3125,521.0938 194.3125,523.1719 194.3125,525.8906 L194.3125,527.0156 C194.3125,529.5938 196.4219,531.4844 199.3125,531.4844 C200.5313,531.4844 201.6875,531.1875 202.4375,530.6406 C203.0156,530.2344 203.3438,529.7813 203.3438,529.3906 C203.3438,528.9375 202.9531,528.5469 202.4844,528.5469 C202.2656,528.5469 202.0625,528.625 201.875,528.8125 C201.4219,529.2969 201.4219,529.2969 201.2344,529.3906 C200.8125,529.6563 200.125,529.7813 199.3594,529.7813 C197.3125,529.7813 196.0156,528.6875 196.0156,526.9844 L196.0156,525.8906 C196.0156,524.1094 197.2656,522.7969 199,522.7969 C199.5781,522.7969 200.1875,522.9531 200.6563,523.2031 C201.1406,523.4844 201.3125,523.7031 201.4063,524.1094 C201.4688,524.5156 201.5,524.6406 201.6406,524.7656 C201.7813,524.9063 202.0156,525.0156 202.2344,525.0156 C202.5,525.0156 202.7656,524.875 202.9375,524.6563 C203.0469,524.5 203.0781,524.3125 203.0781,523.8906 L203.0781,522.4688 C203.0781,522.0313 203.0625,521.9063 202.9688,521.75 C202.8125,521.4844 202.5313,521.3438 202.2344,521.3438 C201.9375,521.3438 201.7344,521.4375 201.5156,521.75 L201.3438,521.6719 Z " fill="#000000"/><text fill="#000000" font-family="sans-serif" font-size="14" lengthAdjust="spacing" textLength="138" x="213" y="530.8467">UnderwaterCamera</text><line style="stroke:#181818;stroke-width:0.5;" x1="185" x2="353" y1="542" y2="542"/><rect fill="none" height="6" style="stroke:#C82930;stroke-width:1.0;" width="6" x="192" y="552.6484"/><text fill="#000000" font-family="sans-serif" font-size="14" lengthAdjust="spacing" textLength="66" x="204" y="558.9951">cameraId</text><rect fill="none" height="6" style="stroke:#C82930;stroke-width:1.0;" width="6" x="192" y="568.9453"/><text fill="#000000" font-family="sans-serif" font-size="14" lengthAdjust="spacing" textLength="46" x="204" y="575.292">health</text><rect fill="none" height="6" style="stroke:#C82930;stroke-width:1.0;" width="6" x="192" y="585.2422"/><text fill="#000000" font-family="sans-serif" font-size="14" lengthAdjust="spacing" textLength="28" x="204" y="591.5889">size</text><rect fill="none" height="6" style="stroke:#C82930;stroke-width:1.0;" width="6" x="192" y="601.5391"/><text fill="#000000" font-family="sans-serif" font-size="14" lengthAdjust="spacing" textLength="135" x="204" y="607.8857">parasitesDetected</text><rect fill="none" height="6" style="stroke:#C82930;stroke-width:1.0;" width="6" x="192" y="617.8359"/><text fill="#000000" font-family="sans-serif" font-size="14" lengthAdjust="spacing" textLength="82" x="204" y="624.1826">enclosureId</text><line style="stroke:#181818;stroke-width:0.5;" x1="185" x2="353" y1="631.4844" y2="631.4844"/></g><!--class Alert--><g id="elem_Alert"><rect codeLine="44" fill="#F1F1F1" height="113.1875" id="Alert" rx="2.5" ry="2.5" style="stroke:#181818;stroke-width:0.5;" width="108" x="389" y="518"/><ellipse cx="422" cy="534" fill="#ADD1B2" rx="11" ry="11" style="stroke:#181818;stroke-width:1.0;"/><path d="M424.3438,529.6719 C423.4063,529.2344 422.8125,529.0938 421.9375,529.0938 C419.3125,529.0938 417.3125,531.1719 417.3125,533.8906 L417.3125,535.0156 C417.3125,537.5938 419.4219,539.4844 422.3125,539.4844 C423.5313,539.4844 424.6875,539.1875 425.4375,538.6406 C426.0156,538.2344 426.3438,537.7813 426.3438,537.3906 C426.3438,536.9375 425.9531,536.5469 425.4844,536.5469 C425.2656,536.5469 425.0625,536.625 424.875,536.8125 C424.4219,537.2969 424.4219,537.2969 424.2344,537.3906 C423.8125,537.6563 423.125,537.7813 422.3594,537.7813 C420.3125,537.7813 419.0156,536.6875 419.0156,534.9844 L419.0156,533.8906 C419.0156,532.1094 420.2656,530.7969 422,530.7969 C422.5781,530.7969 423.1875,530.9531 423.6563,531.2031 C424.1406,531.4844 424.3125,531.7031 424.4063,532.1094 C424.4688,532.5156 424.5,532.6406 424.6406,532.7656 C424.7813,532.9063 425.0156,533.0156 425.2344,533.0156 C425.5,533.0156 425.7656,532.875 425.9375,532.6563 C426.0469,532.5 426.0781,532.3125 426.0781,531.8906 L426.0781,530.4688 C426.0781,530.0313 426.0625,529.9063 425.9688,529.75 C425.8125,529.4844 425.5313,529.3438 425.2344,529.3438 C424.9375,529.3438 424.7344,529.4375 424.5156,529.75 L424.3438,529.6719 Z " fill="#000000"/><text fill="#000000" font-family="sans-serif" font-size="14" lengthAdjust="spacing" textLength="36" x="440" y="538.8467">Alert</text><line style="stroke:#181818;stroke-width:0.5;" x1="390" x2="496" y1="550" y2="550"/><rect fill="none" height="6" style="stroke:#C82930;stroke-width:1.0;" width="6" x="397" y="560.6484"/><text fill="#000000" font-family="sans-serif" font-size="14" lengthAdjust="spacing" textLength="47" x="409" y="566.9951">alertId</text><rect fill="none" height="6" style="stroke:#C82930;stroke-width:1.0;" width="6" x="397" y="576.9453"/><text fill="#000000" font-family="sans-serif" font-size="14" lengthAdjust="spacing" textLength="34" x="409" y="583.292">type</text><rect fill="none" height="6" style="stroke:#C82930;stroke-width:1.0;" width="6" x="397" y="593.2422"/><text fill="#000000" font-family="sans-serif" font-size="14" lengthAdjust="spacing" textLength="68" x="409" y="599.5889">paramter</text><rect fill="none" height="6" style="stroke:#C82930;stroke-width:1.0;" width="6" x="397" y="609.5391"/><text fill="#000000" font-family="sans-serif" font-size="14" lengthAdjust="spacing" textLength="82" x="409" y="615.8857">enclosureId</text><line style="stroke:#181818;stroke-width:0.5;" x1="390" x2="496" y1="623.1875" y2="623.1875"/></g><!--class Species--><g id="elem_Species"><rect codeLine="51" fill="#F1F1F1" height="80.5938" id="Species" rx="2.5" ry="2.5" style="stroke:#181818;stroke-width:0.5;" width="93" x="358.5" y="369"/><ellipse cx="375.75" cy="385" fill="#ADD1B2" rx="11" ry="11" style="stroke:#181818;stroke-width:1.0;"/><path d="M378.0938,380.6719 C377.1563,380.2344 376.5625,380.0938 375.6875,380.0938 C373.0625,380.0938 371.0625,382.1719 371.0625,384.8906 L371.0625,386.0156 C371.0625,388.5938 373.1719,390.4844 376.0625,390.4844 C377.2813,390.4844 378.4375,390.1875 379.1875,389.6406 C379.7656,389.2344 380.0938,388.7813 380.0938,388.3906 C380.0938,387.9375 379.7031,387.5469 379.2344,387.5469 C379.0156,387.5469 378.8125,387.625 378.625,387.8125 C378.1719,388.2969 378.1719,388.2969 377.9844,388.3906 C377.5625,388.6563 376.875,388.7813 376.1094,388.7813 C374.0625,388.7813 372.7656,387.6875 372.7656,385.9844 L372.7656,384.8906 C372.7656,383.1094 374.0156,381.7969 375.75,381.7969 C376.3281,381.7969 376.9375,381.9531 377.4063,382.2031 C377.8906,382.4844 378.0625,382.7031 378.1563,383.1094 C378.2188,383.5156 378.25,383.6406 378.3906,383.7656 C378.5313,383.9063 378.7656,384.0156 378.9844,384.0156 C379.25,384.0156 379.5156,383.875 379.6875,383.6563 C379.7969,383.5 379.8281,383.3125 379.8281,382.8906 L379.8281,381.4688 C379.8281,381.0313 379.8125,380.9063 379.7188,380.75 C379.5625,380.4844 379.2813,380.3438 378.9844,380.3438 C378.6875,380.3438 378.4844,380.4375 378.2656,380.75 L378.0938,380.6719 Z " fill="#000000"/><text fill="#000000" font-family="sans-serif" font-size="14" lengthAdjust="spacing" textLength="56" x="390.25" y="389.8467">Species</text><line style="stroke:#181818;stroke-width:0.5;" x1="359.5" x2="450.5" y1="401" y2="401"/><rect fill="none" height="6" style="stroke:#C82930;stroke-width:1.0;" width="6" x="366.5" y="411.6484"/><text fill="#000000" font-family="sans-serif" font-size="14" lengthAdjust="spacing" textLength="67" x="378.5" y="417.9951">speciesId</text><rect fill="none" height="6" style="stroke:#C82930;stroke-width:1.0;" width="6" x="366.5" y="427.9453"/><text fill="#000000" font-family="sans-serif" font-size="14" lengthAdjust="spacing" textLength="40" x="378.5" y="434.292">name</text><line style="stroke:#181818;stroke-width:0.5;" x1="359.5" x2="450.5" y1="441.5938" y2="441.5938"/></g><!--link Customer to Farm--><g id="link_Customer_Farm"><path codeLine="56" d="M393.727,136.113 C384.143,155.607 373.677,176.895 364.375,195.818 " fill="none" id="Customer-Farm" style="stroke:#181818;stroke-width:1.0;"/><text fill="#000000" font-family="sans-serif" font-size="13" lengthAdjust="spacing" textLength="8" x="381.6486" y="156.4976">1</text><text fill="#000000" font-family="sans-serif" font-size="13" lengthAdjust="spacing" textLength="8" x="359.2238" y="185.0594">n</text></g><!--link Farm to Enclosure--><g id="link_Farm_Enclosure"><path codeLine="57" d="M312.643,309.021 C303.954,328.826 294.349,350.72 286.367,368.914 " fill="none" id="Farm-Enclosure" style="stroke:#181818;stroke-width:1.0;"/><text fill="#000000" font-family="sans-serif" font-size="13" lengthAdjust="spacing" textLength="8" x="301.0098" y="329.2871">1</text><text fill="#000000" font-family="sans-serif" font-size="13" lengthAdjust="spacing" textLength="8" x="280.5809" y="358.0613">n</text></g><!--link Enclosure to Sensor--><g id="link_Enclosure_Sensor"><path codeLine="58" d="M222.276,450.374 C198.532,470.638 169.288,495.595 143.35,517.73 " fill="none" id="Enclosure-Sensor" style="stroke:#181818;stroke-width:1.0;"/><text fill="#000000" font-family="sans-serif" font-size="13" lengthAdjust="spacing" textLength="8" x="206.8259" y="469.5854">1</text><text fill="#000000" font-family="sans-serif" font-size="13" lengthAdjust="spacing" textLength="8" x="142.827" y="506.9607">n</text></g><!--link Enclosure to UnderwaterCamera--><g id="link_Enclosure_UnderwaterCamera"><path codeLine="59" d="M269,450.374 C269,468.282 269,489.854 269,509.906 " fill="none" id="Enclosure-UnderwaterCamera" style="stroke:#181818;stroke-width:1.0;"/><text fill="#000000" font-family="sans-serif" font-size="13" lengthAdjust="spacing" textLength="8" x="260.4125" y="469.5854">1</text><text fill="#000000" font-family="sans-serif" font-size="13" lengthAdjust="spacing" textLength="8" x="260.5625" y="499.0684">n</text></g><!--link Farm to Species--><g id="link_Farm_Species"><path codeLine="60" d="M361.357,309.021 C370.046,328.826 379.651,350.72 387.633,368.914 " fill="none" id="Farm-Species" style="stroke:#181818;stroke-width:1.0;"/><text fill="#000000" font-family="sans-serif" font-size="13" lengthAdjust="spacing" textLength="8" x="355.9652" y="329.2871">1</text><text fill="#000000" font-family="sans-serif" font-size="13" lengthAdjust="spacing" textLength="8" x="376.0941" y="358.0613">n</text></g><!--link Customer to Dashboard--><g id="link_Customer_Dashboard"><path codeLine="61" d="M456.629,136.113 C467.72,158.421 479.98,183.077 490.309,203.851 " fill="none" id="Customer-Dashboard" style="stroke:#181818;stroke-width:1.0;"/><text fill="#000000" font-family="sans-serif" font-size="13" lengthAdjust="spacing" textLength="8" x="451.8236" y="156.4976">1</text><text fill="#000000" font-family="sans-serif" font-size="13" lengthAdjust="spacing" textLength="8" x="478.415" y="193.039">n</text></g><!--link Enclosure to Alert--><g id="link_Enclosure_Alert"><path codeLine="62" d="M311.565,450.374 C334.806,472.146 363.83,499.335 388.688,522.622 " fill="none" id="Enclosure-Alert" style="stroke:#181818;stroke-width:1.0;"/><text fill="#000000" font-family="sans-serif" font-size="13" lengthAdjust="spacing" textLength="8" x="309.2292" y="469.5854">1</text><text fill="#000000" font-family="sans-serif" font-size="13" lengthAdjust="spacing" textLength="8" x="372.8523" y="511.7063">n</text></g><!--SRC=[TPBFRiCW3CRlF0NAFOSzmjHkqauxLDlT1LT4ua-4YQfjshkFKMAob7721dxVPsDbWKWU5ah1OPHVGkOrIbKJBxecF3YiMtGmsRgVJV1h7hIEI2I-XL25-WpHCV6I0wRPe21DmQ_mnPqnlbwUlBA1baovjy5KliHeN3FChsByvWXapW6Y_hz0Ggz32vF9Baom6yW9FONMejs36M9kKSAuZz_1BjXnojmthp5U8Lyzv1SHciSIie91iCciwjCdRfHeIaZ7BASIwhxOAlTeCIRMWD-eLVqnRwckbTDrVffHJKYj9RVuxz3aspnUmyCWnr4EVYZ38Sg4R9ByjwBzykRuzWFzitqNxzZLRDSCpqUVNLhs0m00]--></g></svg>